<?xml version="1.0" encoding="utf-8"?>
<!-- Generator: Adobe Illustrator 15.1.0, SVG Export Plug-In  -->
<!DOCTYPE svg PUBLIC "-//W3C//DTD SVG 1.1//EN" "http://www.w3.org/Graphics/SVG/1.1/DTD/svg11.dtd" [
	<!ENTITY ns_flows "http://ns.adobe.com/Flows/1.0/">
]>
<svg version="1.1"
	 xmlns="http://www.w3.org/2000/svg" xmlns:xlink="http://www.w3.org/1999/xlink" xmlns:a="http://ns.adobe.com/AdobeSVGViewerExtensions/3.0/"
	 x="0px" y="0px" width="200px" height="200px" viewBox="0 0 200 200" overflow="visible" enable-background="new 0 0 200 200"
	 xml:space="preserve">
<defs>
</defs>
<circle fill="#F0EFEF" cx="100" cy="100" r="100"/>
<path fill="#908F8F" d="M141.495,91.514c0.035-0.622,0.092-1.243,0.092-1.872c0-17.216-13.952-31.172-31.17-31.172
	c-12.411,0-23.1,7.276-28.112,17.777c-2.431-1.886-5.476-3.019-8.791-3.019c-7.94,0-14.378,6.438-14.378,14.379
	c0,1.491,0.227,2.93,0.647,4.282c-6.188,3.683-10.35,10.419-10.35,18.146c0,11.548,9.275,20.916,20.783,21.094v0.011h0.245
	c0.028,0,0.057,0.007,0.085,0.007s0.056-0.007,0.083-0.007h24.943v-20.284c-1.363,0-2.73,0-3.768,0h-9.581
	c-2.071,0-2.679-1.3-1.349-2.891l18.228-21.772c1.331-1.587,3.509-1.587,4.84,0l18.229,21.772c1.329,1.591,0.723,2.891-1.35,2.891
	h-9.581c-1.037,0-2.404,0-3.768,0v20.284h24.973c0.373,0.021,0.746,0.057,1.126,0.057c11.396,0,20.632-9.236,20.632-20.632
	C154.204,101.975,148.956,94.617,141.495,91.514z"/>
</svg>
